<svg xmlns="http://www.w3.org/2000/svg" width="1706" height="567" viewBox="0 0 1706 567" fill="none"><g clip-path="url(#clip0_71_3)"><path d="M41.58 356.545C43.344 375.445 57.204 387.037 75.852 387.037C94.5 387.037 103.824 379.981 103.824 366.121C103.824 350.245 89.964 345.961 67.032 338.905C37.296 329.833 8.064 318.997 8.064 281.701C8.064 247.681 41.832 231.805 74.844 231.805C110.88 231.805 138.6 247.681 143.136 290.269H102.816C99.54 272.629 90.468 264.817 73.584 264.817C58.968 264.817 47.88 270.613 47.88 283.717C47.88 296.569 60.48 302.869 83.16 309.673C114.156 318.997 143.64 328.321 143.64 366.625C143.64 403.417 110.124 420.301 75.852 420.301C36.54 420.301 5.04 400.141 0 356.545H41.58Z" fill="#2B63AC"></path><path d="M287.191 369.901C282.655 402.661 254.935 420.301 223.939 420.301C186.895 420.301 152.623 395.353 152.623 350.749C152.623 305.641 186.895 281.701 223.939 281.701C254.683 281.701 282.403 299.341 286.687 330.589H250.903C246.619 316.477 235.027 311.689 223.939 311.689C203.527 311.689 190.927 329.077 190.927 351.001C190.927 372.925 203.527 390.313 223.939 390.313C235.531 390.313 248.383 384.517 251.659 369.901H287.191Z" fill="#2B63AC"></path><path d="M302.26 416.017V236.089H340.06V306.397C347.368 291.529 358.96 281.701 379.12 281.701C412.384 281.701 425.74 303.877 425.74 339.409V416.017H387.184V351.001C387.184 334.873 385.168 315.973 366.016 315.973C349.636 315.973 341.32 330.841 341.32 361.081V416.017H302.26Z" fill="#2B63AC"></path><path d="M446.294 236.089H485.354V416.017H446.294V236.089Z" fill="#2B63AC"></path><path d="M632.14 377.965C624.076 402.661 600.892 420.553 567.376 420.553C527.56 420.553 499.084 392.581 499.084 350.749C499.084 310.681 528.316 281.449 568.132 281.449C610.468 281.449 634.156 311.941 634.156 354.025C634.156 355.537 634.156 358.561 633.904 361.837H536.38C539.152 378.721 551.5 389.809 567.628 389.809C578.716 389.809 588.292 386.029 593.08 377.965H632.14ZM536.38 337.645H597.112C595.348 324.793 587.032 310.177 567.628 310.177C550.996 310.177 539.404 321.013 536.38 337.645Z" fill="#2B63AC"></path><path d="M717.265 324.289C715.249 313.453 707.689 308.413 697.609 308.413C687.529 308.413 680.977 313.705 680.977 320.257C680.977 327.817 685.765 331.849 701.893 336.133C707.941 337.897 713.737 339.157 719.785 340.921C743.473 347.473 754.813 359.317 754.813 378.721C754.813 401.905 734.401 420.553 698.617 420.553C666.109 420.553 644.689 405.433 640.657 375.193H678.457C680.221 386.281 687.025 392.833 698.617 392.833C710.209 392.833 717.013 387.541 717.013 379.981C717.013 370.153 707.941 367.381 699.625 365.113C693.073 363.097 686.521 361.585 679.969 359.569C657.289 353.269 644.941 340.921 644.941 320.761C644.941 298.333 665.353 281.197 697.609 281.197C729.865 281.197 749.269 297.073 753.049 324.289H717.265Z" fill="#2B63AC"></path><path d="M792.331 416.017L754.783 285.733H794.347L805.939 333.865C810.475 352.261 811.987 363.853 815.767 383.509H816.019C820.555 364.861 822.067 352.261 827.107 330.841L837.187 285.733H879.019L889.603 331.849C893.383 347.473 896.659 367.381 900.439 384.013H900.691C903.967 369.901 907.747 349.489 911.527 331.849L921.607 285.733H961.171L923.371 416.017H877.507L867.931 376.453C864.151 360.829 859.867 342.433 858.355 329.833H857.095C854.323 345.457 851.551 358.813 847.519 375.949L838.195 416.017H792.331Z" fill="#2B63AC"></path><path d="M1009.59 269.857H969.771V236.089H1009.59V269.857ZM969.519 416.017V285.733H1008.58V416.017H969.519Z" fill="#2B63AC"></path><path d="M1120.31 285.733H1161.89V399.889C1161.89 448.525 1129.39 463.393 1093.1 463.393C1054.04 463.393 1031.36 442.225 1027.33 418.033H1065.13C1068.15 429.373 1077.73 434.917 1092.59 434.917C1112.75 434.917 1120.31 424.837 1120.31 407.701V391.825H1120.06C1115.02 401.905 1104.44 411.985 1084.03 411.985C1050.26 411.985 1023.29 389.557 1023.29 346.717C1023.29 304.129 1049.5 281.953 1083.77 281.953C1102.93 281.953 1115.53 291.025 1120.06 300.349H1120.31V285.733ZM1062.1 346.969C1062.1 365.869 1073.19 382.249 1093.6 382.249C1114.77 382.249 1124.85 364.357 1124.85 346.969C1124.85 329.833 1113.51 311.941 1093.6 311.941C1073.44 311.941 1062.1 328.321 1062.1 346.969Z" fill="#2B63AC"></path><path d="M1308.5 377.965C1300.44 402.661 1277.26 420.553 1243.74 420.553C1203.92 420.553 1175.45 392.581 1175.45 350.749C1175.45 310.681 1204.68 281.449 1244.5 281.449C1286.83 281.449 1310.52 311.941 1310.52 354.025C1310.52 355.537 1310.52 358.561 1310.27 361.837H1212.74C1215.52 378.721 1227.86 389.809 1243.99 389.809C1255.08 389.809 1264.66 386.029 1269.44 377.965H1308.5ZM1212.74 337.645H1273.48C1271.71 324.793 1263.4 310.177 1243.99 310.177C1227.36 310.177 1215.77 321.013 1212.74 337.645Z" fill="#2B63AC"></path><path d="M1362.88 285.733V306.397C1370.44 290.269 1385.56 283.969 1402.7 283.465V320.005C1400.43 320.005 1387.58 319.753 1382.29 322.273C1372.96 325.297 1364.14 331.597 1364.14 359.317V416.017H1325.08V285.733H1362.88Z" fill="#2B63AC"></path><path d="M335 565.014V501.94H350.372V512.798C353.91 505.478 359.522 500.232 369.282 500.232C385.63 500.232 391.974 510.968 391.974 526.462V565.014H376.358V530.244C376.358 521.094 373.918 513.896 364.89 513.896C356.472 513.896 350.738 521.338 350.738 536.71V565.014H335Z" fill="#2B63AC"></path><path d="M431.625 566.844C413.203 566.844 398.563 553.79 398.563 533.416C398.563 513.164 413.203 500.232 431.625 500.232C450.047 500.232 464.565 513.164 464.565 533.416C464.565 553.79 450.047 566.844 431.625 566.844ZM413.935 533.416C413.935 544.884 420.889 554.4 431.625 554.4C442.361 554.4 449.315 544.884 449.315 533.416C449.315 522.07 442.361 512.554 431.625 512.554C420.889 512.554 413.935 522.07 413.935 533.416Z" fill="#2B63AC"></path><path d="M487.093 501.94V513.042C490.631 504.624 497.463 501.33 506.247 501.208V515.97C505.393 515.97 500.879 515.97 498.683 516.824C493.071 518.166 487.459 521.216 487.459 536.588V565.014H471.721V501.94H487.093Z" fill="#2B63AC"></path><path d="M537.286 500.232C548.266 500.232 554.854 507.186 556.806 512.432H556.928V477.906H573.032V565.014H556.806V555.132H556.684C554.366 560.012 548.144 566.6 537.53 566.6C520.45 566.6 507.762 553.668 507.762 533.416C507.762 513.164 520.328 500.232 537.286 500.232ZM523.378 533.416C523.378 545.006 529.356 554.278 540.824 554.278C552.658 554.278 558.27 544.152 558.27 533.416C558.27 522.68 552.292 512.676 540.824 512.676C529.6 512.676 523.378 521.826 523.378 533.416Z" fill="#2B63AC"></path><path d="M600.607 492.546H584.381V477.906H600.607V492.546ZM584.137 565.014V501.94H599.875V565.014H584.137Z" fill="#2B63AC"></path><path d="M645.489 520.728C644.513 514.384 639.633 511.7 634.143 511.7C628.897 511.7 624.505 514.506 624.505 518.654C624.505 522.802 627.921 524.998 634.753 526.828C637.681 527.682 640.365 528.292 643.293 529.024C654.029 531.83 661.105 537.076 661.105 546.958C661.105 559.036 649.637 566.966 634.753 566.966C621.089 566.966 609.377 560.622 607.669 545.494H623.041C624.139 551.96 628.165 555.132 634.997 555.132C640.853 555.132 645.733 552.692 645.733 547.568C645.733 542.566 640.975 541.102 636.217 539.882C633.167 538.906 630.117 538.174 626.945 537.32C616.697 534.636 609.743 528.658 609.743 518.898C609.743 507.674 620.479 499.988 634.265 499.988C648.661 499.988 658.543 507.308 660.129 520.728H645.489Z" fill="#2B63AC"></path><path d="M727.848 543.908C725.164 558.67 713.452 566.844 698.324 566.844C679.78 566.844 664.652 554.034 664.652 533.416C664.652 512.798 679.78 500.232 698.324 500.232C713.696 500.232 725.286 508.894 727.604 522.558H712.72C710.646 516.092 705.522 512.554 698.202 512.554C687.1 512.554 680.268 521.704 680.268 533.538C680.268 545.25 687.1 554.522 698.202 554.522C705.278 554.522 711.012 551.106 713.086 543.908H727.848Z" fill="#2B63AC"></path><path d="M735.784 565.014V477.906H751.156V512.676C754.694 505.478 760.306 500.232 770.066 500.232C786.414 500.232 792.758 510.968 792.758 526.462V565.014H777.142V530.244C777.142 521.094 774.702 513.896 765.674 513.896C757.256 513.896 751.522 521.338 751.522 536.71V565.014H735.784Z" fill="#2B63AC"></path><path d="M802.882 548.91H819.108V565.014H802.882V548.91Z" fill="#2B63AC"></path><path d="M853.595 565.014V501.94H868.967V512.798C872.505 505.478 878.117 500.232 887.877 500.232C904.225 500.232 910.569 510.968 910.569 526.462V565.014H894.953V530.244C894.953 521.094 892.513 513.896 883.485 513.896C875.067 513.896 869.333 521.338 869.333 536.71V565.014H853.595Z" fill="#2B63AC"></path><path d="M920.693 521.216C922.523 510.846 931.185 499.988 947.777 499.988C967.541 499.988 974.861 511.334 974.861 526.828V549.642C974.861 554.522 975.227 560.988 976.081 565.014H960.343C959.977 562.94 959.855 560.622 959.855 558.548V555.376H959.733C957.171 560.378 951.925 566.722 939.969 566.722C926.183 566.722 917.887 558.426 917.887 547.812C917.887 530.488 938.627 528.78 947.411 527.438C955.585 526.218 959.489 524.998 959.489 519.63C959.489 514.628 955.097 511.7 947.899 511.7C941.677 511.7 937.041 515.36 935.455 521.216H920.693ZM933.503 547.08C933.503 551.594 937.163 555.132 944.239 555.132C952.291 555.132 959.733 550.374 959.733 535.734V530.366C958.269 533.416 954.975 536.222 945.703 538.052C937.285 539.76 933.503 542.322 933.503 547.08Z" fill="#2B63AC"></path><path d="M985.193 565.014V477.906H1000.57V512.676C1004.1 505.478 1009.72 500.232 1019.48 500.232C1035.82 500.232 1042.17 510.968 1042.17 526.462V565.014H1026.55V530.244C1026.55 521.094 1024.11 513.896 1015.08 513.896C1006.67 513.896 1000.93 521.338 1000.93 536.71V565.014H985.193Z" fill="#2B63AC"></path><path d="M1052.29 548.91H1068.52V565.014H1052.29V548.91Z" fill="#2B63AC"></path><path d="M1605.39 366.441C1607.52 364.409 1609.64 362.343 1611.74 360.244C1713.66 258.319 1736.81 116.219 1663.45 42.8538C1590.08 -30.5111 1447.98 -7.35871 1346.06 94.5661C1343.96 96.6662 1341.89 98.7833 1339.86 100.917C1439.52 6.02138 1575.91 -13.3104 1647.76 58.5435C1719.61 130.397 1700.28 266.785 1605.39 366.441Z" fill="#589BF4"></path><path d="M1566.6 390.869C1569.48 388.182 1572.32 385.431 1575.14 382.617C1671.6 286.153 1693.51 151.665 1624.08 82.23C1554.64 12.7953 1420.16 34.7074 1323.69 131.172C1320.88 133.987 1318.12 136.834 1315.44 139.71C1406.49 54.9665 1531.49 39.9989 1598.9 107.408C1666.31 174.817 1651.34 299.82 1566.6 390.869Z" fill="#3D84E0"></path><path d="M1516.87 425.088C1523.61 419.375 1530.21 413.307 1536.63 406.889C1627.63 315.884 1648.31 189.009 1582.8 123.505C1517.3 58.0001 1390.42 78.6719 1299.42 169.676C1293 176.094 1286.93 182.69 1281.22 189.43C1370.57 113.623 1484.88 99.6586 1545.76 160.543C1606.65 221.428 1592.68 335.734 1516.87 425.088Z" fill="#2B63AC"></path></g><defs><clipPath id="clip0_71_3"><rect width="1706" height="567" fill="white"></rect></clipPath></defs></svg>