<?xml version="1.0" encoding="utf-8"?>
<!-- Generator: Adobe Illustrator 27.1.1, SVG Export Plug-In . SVG Version: 6.00 Build 0)  -->
<svg version="1.1" id="Ebene_1" xmlns="http://www.w3.org/2000/svg" xmlns:xlink="http://www.w3.org/1999/xlink" x="0px" y="0px"
	 viewBox="0 0 6632 1416.6" style="enable-background:new 0 0 6632 1416.6;" xml:space="preserve">
<g>
	<g>
		<g>
			<path style="fill:#595959;" d="M1994.3,384.4h180.5l179.6,794.4l263.5-794.4h161.2l281.9,794.4l162.2-794.4h189.2l-264.5,1013.5
				h-163.1l-290.5-757.7l-276.1,757.7h-167L1994.3,384.4z"/>
			<path style="fill:#595959;" d="M3157.2,1410.2h-181l-281.9-735.1l-267.8,735.1h-185.1l-263-1038h206l172,761.1l252.4-761.1h178.7
				l270.1,761.1L3213,372.2h215L3157.2,1410.2z M2993,1385.7h145.3l258.1-989.1H3233l-169,827.7l-293.7-827.7h-143.7l-274.6,827.8
				L2165,396.6h-155l250.6,989.1h148.9l284.3-780.4L2993,1385.7z"/>
		</g>
		<g>
			<path style="fill:#595959;" d="M3542.6,1092c0-207.8,137.1-311.8,411.2-311.8c88.1,0,176.3,6.4,264.5,19.3v-95.6
				c0-116.5-91.1-174.7-273.2-174.7c-104.3,0-211.1,16.1-320.5,48.2V432.7c109.4-32.2,216.2-48.2,320.5-48.2
				c301.2,0,451.7,104.9,451.7,314.7v698.9h-100.4l-61.8-100.4c-101,66.9-211.1,100.4-330.1,100.4
				C3663.2,1397.9,3542.6,1296,3542.6,1092z M3953.8,925c-155.1,0-232.6,54.7-232.6,164.1s61.1,164.1,183.4,164.1
				c123.5,0,228.1-32.8,313.7-98.5V944.3C4130.1,931.4,4041.9,925,3953.8,925z"/>
			<path style="fill:#595959;" d="M4409.1,1410.2h-119.4l-58.8-95.5c-99.8,63.4-209.5,95.5-326.3,95.5
				c-248.3,0-374.2-107.1-374.2-318.2c0-215,142.5-324,423.4-324c83.6,0,168.4,5.9,252.2,17.4v-81.5c0-109.3-85.3-162.5-260.9-162.5
				c-102.6,0-209.2,16.1-317,47.8l-15.7,4.6V423.5l8.8-2.6c110-32.4,219-48.8,323.9-48.8c307.9,0,464,110,464,326.9L4409.1,1410.2
				L4409.1,1410.2z M4303.3,1385.7h81.3V699.1c0-101.6-35.2-175.5-107.7-226c-72.9-50.7-184.5-76.5-331.8-76.5
				c-99.8,0-203.4,15.2-308.3,45.2v119.4c104.7-29.4,208.3-44.2,308.3-44.2c189.4,0,285.4,62.9,285.4,187v109.7l-14-2
				c-87.2-12.7-175.6-19.2-262.7-19.2c-133.7,0-235,25.4-301,75.5c-65,49.3-98,124.7-98,224.1c0,197.7,114.4,293.8,349.7,293.8
				c116.1,0,224.8-33.1,323.4-98.3l10.5-7L4303.3,1385.7z M3904.5,1265.4c-63.9,0-113-14.8-145.7-44.1
				c-33.1-29.6-49.9-74.1-49.9-132.2c0-117,82.4-176.3,244.8-176.3c88.3,0,177.9,6.5,266.3,19.4l10.4,1.5v227l-4.8,3.7
				C4138.3,1231.4,4030.3,1265.4,3904.5,1265.4z M3953.8,937.2c-148.3,0-220.4,49.7-220.4,151.9s56,151.9,171.2,151.9
				c117.9,0,219.3-31,301.5-92.3V954.9C4122.2,943.1,4037.4,937.2,3953.8,937.2z"/>
		</g>
		<g>
			<path style="fill:#595959;" d="M5838,1349.7v-154.4c119.1,38.6,239.4,57.9,361,57.9c161.5,0,242.3-48.2,242.3-144.8
				c0-90.1-56.3-135.1-168.9-135.1h-144.8c-218.8,0-328.2-99.7-328.2-299.2c0-193,140.6-289.6,421.8-289.6c121,0,241,16.1,360,48.2
				v154.4c-119.1-38.6-239.1-57.9-360-57.9c-168.6,0-252.9,48.2-252.9,144.8c0,90.1,53.1,135.1,159.3,135.1h144.8
				c231.7,0,347.5,99.7,347.5,299.2c0,193-140.3,289.6-420.8,289.6C6077.4,1397.9,5957,1381.9,5838,1349.7z"/>
			<path style="fill:#595959;" d="M6199,1410.2c-122.2,0-244.7-16.4-364.2-48.7l-9-2.4v-180.6l16,5.2
				c117.3,38,237.4,57.3,357.2,57.3c154.8,0,230-43.4,230-132.5c0-82.7-51.2-122.9-156.7-122.9h-144.8
				c-225.9,0-340.4-104.8-340.4-311.5c0-200.3,146-301.8,434-301.8c121.5,0,243.7,16.4,363.2,48.7l9,2.4V604l-16-5.2
				c-117.3-38-237.2-57.3-356.3-57.3c-162,0-240.7,43.4-240.7,132.5c0,82.7,48.1,122.9,147,122.9h144.8
				c238.7,0,359.7,104.8,359.7,311.5C6632.1,1308.6,6486.4,1410.2,6199,1410.2z M5850.2,1340.3c114.5,30.2,231.8,45.4,348.8,45.4
				c137.1,0,241-23.6,308.7-70.3c67.3-46.2,99.9-114,99.9-207.1c0-193.1-109.7-287-335.3-287h-144.8
				c-141.7,0-171.5-80.1-171.5-147.3c0-104.2,89.2-157,265.1-157c116.3,0,233.2,18,347.8,53.5V442.1
				c-114.6-30.2-231.6-45.4-347.8-45.4c-137.4,0-241.6,23.6-309.5,70.3c-67.4,46.2-100.1,114-100.1,207.1c0,193.1,103.3,287,316,287
				h144.8c149.7,0,181.2,80.1,181.2,147.3c0,104.2-85.6,157-254.5,157c-116.9,0-234.2-18-348.8-53.5L5850.2,1340.3L5850.2,1340.3z"
				/>
		</g>
	</g>
	<g>
		<g>
			<path style="fill:#753BBD;" d="M4882.2,18.4v168.9h-178.6V18.4H4882.2z M4882.2,385.2v1013.5h-178.6V385.2H4882.2z"/>
			<path style="fill:#753BBD;" d="M4894.5,1410.9h-203v-1038h203V1410.9z M4715.9,1386.5H4870V397.4h-154.1V1386.5z M4894.5,199.5
				h-203V6.1h203V199.5z M4715.9,175H4870V30.6h-154.1V175z"/>
		</g>
		<g>
			<path style="fill:#753BBD;" d="M5191.1,221h112l38.6,164.1h274.1v144.8h-246.1V1112c0,94.6,40.8,141.9,122.6,141.9h123.5v144.8
				H5446c-169.9,0-254.8-91.1-254.8-273.2L5191.1,221L5191.1,221z"/>
			<path style="fill:#753BBD;" d="M5628,1410.9h-182.1c-177.2,0-267.1-96-267.1-285.4V208.8h133.9l38.6,164.1H5628v169.2h-246.1
				V1112c0,88.5,35.1,129.7,110.4,129.7h135.8L5628,1410.9L5628,1410.9z M5203.3,233.3v892.2c0,175.6,79.3,260.9,242.6,260.9h157.7
				v-120.3h-111.3c-61.5,0-134.8-26.7-134.8-154.1V517.7h246.1V397.4H5332l-38.6-164.1L5203.3,233.3L5203.3,233.3z"/>
		</g>
	</g>
	<g>
		<g>
			<path style="fill:#9E75D1;" d="M4618.1,18.3v168.9h-178.6V18.3H4618.1z"/>
			<path style="fill:#9E75D1;" d="M4630.3,199.5h-203V6.1h203V199.5z M4451.7,175h154.1V30.6h-154.1V175z"/>
		</g>
	</g>
	<g>
		<g>
			<path style="fill:#C8B1E5;" d="M4354.6,18.6v168.9H4176V18.6H4354.6z"/>
			<path style="fill:#C8B1E5;" d="M4366.8,199.7h-203V6.3h203V199.7z M4188.2,175.3h154.1V30.8h-154.1V175.3z"/>
		</g>
	</g>
	<g>
		<path style="fill:#595959;" d="M1632.8,1416.6c-17.9,0-32.4-14.5-32.5-32.4L1599,33c0-17.9,14.5-32.5,32.4-32.5h0
			c17.9,0,32.4,14.5,32.5,32.4l1.3,1351.2C1665.3,1402,1650.8,1416.6,1632.8,1416.6C1632.8,1416.6,1632.8,1416.6,1632.8,1416.6z"/>
	</g>
	<g>
		<path style="fill:#753BBD;" d="M463.9,272.7c75.3,0,136.3-61.1,136.3-136.3S539.2,0,463.9,0S327.5,61.1,327.5,136.3
			S388.5,272.7,463.9,272.7z"/>
		<path style="fill:#753BBD;" d="M375.3,576.5c-36.3,0-65.8,32-65.8,71.4l-38.2,327.3c-10.6,97.1-71.9,150.2-105.7,198.8
			c-12,17.4-27.2,34.8-38.2,56.6c-12.3,18.8-19.4,41.2-19.4,65.3c0,66.1,53.6,119.6,119.6,119.6c6.6,0,13-0.6,19.3-1.6
			c0.8,0.2,1.2,0.4,1.2,0.4c1.6-0.4,3-1,4.5-1.4c41.3-8.8,74.7-38.9,88.2-78.3c2.6-5.6,5.2-11.5,7.5-17.7c0,0,0,0,0,0
			c0.2-0.4,0.4-1,0.6-1.8c6.2-17.2,11.3-36.4,15.4-57.9c12.3-60.7,76.8-609.3,76.8-609.3C441.1,608.4,411.6,576.5,375.3,576.5z"/>
		<path style="fill:#753BBD;" d="M847.7,772.1c0.8-23.4,1.9-46.7,2.9-70.1c0.7-16.8,1.4-33.5,2.3-50.3c1.2-22.3,2.6-44.6,3.9-66.9
			c0.7-11.3,1.5-22.6,2.2-34c0.5-7.6,1-15.2,1.6-22.9c0.3-3.4,0.6-3.5,3.8-3.6c17.2-0.2,34.5-1,51.7-2.2h230V357.9H932.4
			c-2-0.1-3.9-0.1-5.9-0.1c-22.4,0.1-44.7,0.2-67.1,0.1c-31.6-0.2-63.2-0.8-94.8-1.2c-28.6-0.4-57.2-0.8-85.8-1.2
			c-14.1-0.2-28.2-0.4-42.4-0.7c0-0.1,0-0.2,0-0.2c-37,0-74.1,0-111.1,0c-36.5,0-72.9,0.3-109.4,1.3c-31.6,0.9-63.2,1.9-94.7,4.3
			c-16.7,1.3-33.4,2.8-50.1,4.4c-15.8,1.5-31.4,4-47,7.2c-12.4,2.6-24.4,6.1-36.2,10.8c-20.6,8.3-39.4,19.8-56.7,33.8
			c-19.1,15.6-35.8,33.5-50.5,53.3c-18.4,24.7-33.5,51.3-46.3,79.3c-9,19.6-17,39.8-23.4,60.4c-3.3,10.6-6.3,21.3-9.4,31.9
			c-0.6,2.2-1.2,4.5-1.6,6.8c-1,6.5,4,11.5,10.4,10.4c2.6-0.4,4.3-2,5.9-3.9c8.4-10.1,17.6-19.3,27.4-28
			c25.4-22.8,53.3-41.8,83.7-57.1c14-7,28.3-13.1,43.1-18.2c11.5-4,23-7.7,34.9-10.2c11.5-2.4,23.1-4.8,34.7-6.7
			c8.8-1.5,17.6-2.4,26.5-3.4c9.3-1,18.6-1.9,28-2.7c3.8-0.3,152.3-6.2,157.1-6.3c0.2,0,0.5,0,0.7,0c31,0.1,62.1,0.2,93.1,0.3
			c11.2,0,22.4,0.2,33.7,0.4c26.3,0.4,52.6,0.9,78.8,1.3c17,0.2,34,0.4,51,0.5c3.3,0,3.6,0.4,3.4,3.6c-0.8,9-1.6,18-2.4,27
			c-0.6,6.4-1.2,12.9-1.8,19.4c-1.2,12.6-2.4,25.1-3.6,37.7c-1.2,12.8-2.2,25.6-3.4,38.4c-1.2,13.5-2.5,27-3.7,40.4
			c-1.3,15.1-2.4,30.2-3.6,45.4c-0.6,7.3-1.2,14.5-1.7,21.8c-1.2,17-2.5,33.9-3.6,50.9c-0.8,12.2-1.6,24.5-2.2,36.7
			c-1.2,25-2.6,49.9-3.5,74.9c-0.8,22.7-1.3,45.4-1.6,68.1c-0.3,27.2-0.3,54.4,1.3,81.6c1,16.3,1.8,32.6,3.4,48.8
			c1.2,12.3,3.2,24.6,5,36.8c3,19.7,7,39.2,11.6,58.5c4,16.6,8.8,33,14.6,49.2c6.6,18.6,14.7,36.4,24.9,53.3
			c10.8,17.7,23.7,33.6,39.7,47c24.2,20.2,52.2,32.2,82.7,38.6c10.3,2.2,20.7,3.6,31.2,4.9c22.9,2.7,45.9,3.6,68.9,1.5
			c16.3-1.5,32.2-4.7,47.6-10.4c25.8-9.6,47.2-25.2,64.1-46.9c16.9-21.7,27.4-46.5,34.6-72.9c3.2-11.8,6-23.8,7.6-36
			c1.4-11,3.1-22,4.1-33c1.1-12.4,1.8-24.9,2.3-37.4c0.4-8.2,0.3-16.4,0.4-24.6c0-2.5-0.7-4.8-2.4-6.7c-4.6-5.1-12.3-3.6-14.9,3
			c-2.4,6.2-4.6,12.6-7.2,18.8c-9.9,23.2-23.5,43.8-42.1,60.9c-17.1,15.8-37,26.8-59.6,32.7c-15.4,4-31,5.4-46.8,4.7
			c-10.3-0.4-20.2-2.7-29.6-6.6c-15.5-6.5-27.6-17.1-37.4-30.6c-11-15.1-18-32-23.3-49.7c-4.6-15.3-7.8-31-9.8-46.8
			c-1.8-14.9-3.3-29.9-4.4-44.9c-1.2-15.1-2-30.3-2.5-45.4c-0.9-28.4-1.7-56.9-1.9-85.4c-0.2-26.8,0.3-53.7,0.9-80.6
			C845.7,838,846.6,805.1,847.7,772.1z"/>
	</g>
</g>
</svg>
