<?xml version="1.0" encoding="UTF-8"?>
<svg width="134px" height="99px" viewBox="0 0 134 99" version="1.1" xmlns="http://www.w3.org/2000/svg" xmlns:xlink="http://www.w3.org/1999/xlink">
    <title>Logo-white</title>
    <g id="Page-1" stroke="none" stroke-width="1" fill="none" fill-rule="evenodd">
        <g id="Home-All-Desktop" transform="translate(-38.000000, -148.000000)" fill="#FFFFFF" fill-rule="nonzero">
            <g id="VienesseLogo-Color-RGB" transform="translate(38.000000, 148.000000)">
                <g id="Group" transform="translate(8.617110, 89.877192)">
                    <path d="M0,4.39473741 C0,1.90866333 1.9806873,1.89478063e-14 4.4605462,1.89478063e-14 C6.05405553,1.89478063e-14 7.37878015,0.773088844 8.09873919,1.95678089 L7.07159763,2.71703839 C6.47963132,1.80280469 5.60608102,1.2478488 4.47654529,1.2478488 C2.7294447,1.2478488 1.41751934,2.57589353 1.41751934,4.39152957 C1.41751934,6.20716562 2.7294447,7.53521035 4.47654529,7.53521035 C5.60608102,7.53521035 6.47963132,6.98025446 7.07159763,6.06602076 L8.09873919,6.82627826 C7.39157943,8.01317814 6.05405553,8.78305915 4.4605462,8.78305915 C1.9806873,8.78305915 0,6.89043501 0,4.39152957 L0,4.39473741 Z" id="Path"></path>
                    <path d="M13.3304415,4.39473741 C13.3304415,1.90866333 15.3111288,1.89478063e-14 17.7781884,1.89478063e-14 C20.2452481,1.89478063e-14 22.2387346,1.90545549 22.2387346,4.39473741 C22.2387346,6.88401933 20.2324488,8.78626699 17.7781884,8.78626699 C15.3239281,8.78626699 13.3304415,6.8808115 13.3304415,4.39473741 Z M20.8340146,4.38190606 C20.8340146,2.59193272 19.5220892,1.25105664 17.7877879,1.25105664 C16.0534866,1.25105664 14.7415612,2.57910137 14.7415612,4.38190606 C14.7415612,6.18471075 16.027888,7.53841819 17.7877879,7.53841819 C19.5476878,7.53841819 20.8340146,6.21037345 20.8340146,4.38190606 Z" id="Shape"></path>
                    <polygon id="Path" points="35.3579882 0.144352689 35.3579882 8.78947482 34.8940146 8.78947482 29.7295084 2.89026161 29.7295084 8.64832997 28.366386 8.64832997 28.366386 0.00320783753 28.8431589 0.00320783753 33.9948657 5.87675835 33.9948657 0.144352689"></polygon>
                    <path d="M41.3992444,6.94496825 L42.3623896,6.21037345 C42.8519618,6.91930555 43.5303232,7.56408089 44.5862631,7.56408089 C45.4598134,7.56408089 46.0517797,7.1117758 46.0517797,6.38038884 C46.0517797,5.7099508 45.5494083,5.4533238 44.8038507,5.10366951 L43.8663041,4.66419576 C42.8391625,4.18622797 41.8888166,3.55749182 41.8888166,2.30643518 C41.8888166,0.901402345 43.0983477,0 44.5606645,0 C45.8085935,0 46.784538,0.644775343 47.2965089,1.52051499 L46.3461629,2.25510978 C45.9077879,1.59750309 45.2934228,1.22539394 44.5606645,1.22539394 C43.8791033,1.22539394 43.2743377,1.55900904 43.2743377,2.25510978 C43.2743377,2.89988512 43.7639099,3.13084943 44.4550706,3.46767237 L45.4054165,3.90714611 C46.6917433,4.50059605 47.434101,5.15820274 47.434101,6.32906344 C47.434101,7.83674708 46.2117706,8.78947482 44.5926627,8.78947482 C43.1783432,8.78947482 42.0360082,8.06771138 41.3928448,6.94817608 L41.3992444,6.94496825 Z" id="Path"></path>
                    <path d="M53.5969504,5.20632031 L53.5969504,0.144352689 L54.9600728,0.144352689 L54.9600728,5.29613976 C54.9600728,6.79099205 55.8976195,7.53841819 57.0943514,7.53841819 C58.2910833,7.53841819 59.2030314,6.79099205 59.2030314,5.29613976 L59.2030314,0.144352689 L60.5661538,0.144352689 L60.5661538,5.20632031 C60.5661538,7.47426144 59.0750387,8.78626699 57.0975512,8.78626699 C55.1200637,8.78626699 53.60335,7.4710536 53.60335,5.20632031 L53.5969504,5.20632031 Z" id="Path"></path>
                    <polygon id="Path" points="67.1033819 0.144352689 68.4665043 0.144352689 68.4665043 7.42293604 72.3478835 7.42293604 72.3478835 8.64832997 67.1033819 8.64832997 67.1033819 0.144352689"></polygon>
                    <polygon id="Path" points="78.6067274 1.36653879 75.7524898 1.36653879 75.7524898 0.141144851 82.8336868 0.141144851 82.8336868 1.36653879 79.96665 1.36653879 79.96665 8.64512214 78.6035275 8.64512214 78.6035275 1.36653879"></polygon>
                    <polygon id="Path" points="88.6061584 0.144352689 89.9692808 0.144352689 89.9692808 8.64832997 88.6061584 8.64832997"></polygon>
                    <polygon id="Path" points="103.590906 0.144352689 103.590906 8.78947482 103.126932 8.78947482 97.962426 2.89026161 97.962426 8.64832997 96.5993036 8.64832997 96.5993036 0.00320783753 97.0760765 0.00320783753 102.227783 5.87675835 102.227783 0.144352689 103.590906 0.144352689"></polygon>
                    <path d="M109.724957,4.39473741 C109.724957,1.90866333 111.692845,1.89478063e-14 114.198302,1.89478063e-14 C115.689417,1.89478063e-14 116.908548,0.657606693 117.705303,1.77714199 L116.716559,2.58872488 C116.124593,1.75147929 115.28944,1.2478488 114.185503,1.2478488 C112.374406,1.2478488 111.139276,2.58872488 111.139276,4.37869822 C111.139276,6.16867157 112.412804,7.56087305 114.262299,7.56087305 C115.407833,7.56087305 116.281384,7.04441121 116.793355,6.27132237 L116.793355,5.35708867 L114.185503,5.35708867 L114.185503,4.14452609 L118.156477,4.14452609 L118.156477,6.54078072 C117.423719,7.86882545 115.945403,8.78305915 114.198302,8.78305915 C111.680046,8.78305915 109.724957,6.87760366 109.724957,4.39152957 L109.724957,4.39473741 Z" id="Path"></path>
                </g>
                <g id="Group" transform="translate(0.000000, -0.000000)">
                    <g transform="translate(0.000000, 62.129397)" id="Path">
                        <polygon points="17.6021985 0.31116024 9.31467 19.468366 8.29072827 19.468366 3.69461201e-15 0.31116024 3.38860719 0.31116024 8.79949932 13.4151765 14.2103914 0.31116024 17.5989986 0.31116024"></polygon>
                        <polygon points="22.0435457 0.31116024 25.0609741 0.31116024 25.0609741 19.1539979 22.0435457 19.1539979"></polygon>
                        <polygon points="31.2398225 0.31116024 43.6007192 0.31116024 41.5080382 3.02499079 34.2604506 3.02499079 34.2604506 7.84957843 41.2936504 7.84957843 41.2936504 10.4767974 34.2604506 10.4767974 34.2604506 16.4433752 41.8664178 16.4433752 43.9430997 19.1572057 31.2398225 19.1572057 31.2398225 0.314368078"></polygon>
                        <polygon points="69.9576195 0.31116024 82.3185162 0.31116024 80.2258352 3.02499079 72.9782476 3.02499079 72.9782476 7.84957843 80.0114474 7.84957843 80.0114474 10.4767974 72.9782476 10.4767974 72.9782476 16.4433752 80.5842148 16.4433752 82.6608967 19.1572057 69.9576195 19.1572057 69.9576195 0.314368078"></polygon>
                        <polygon points="120.489144 0.31116024 132.850041 0.31116024 130.75736 3.02499079 123.509772 3.02499079 123.509772 7.84957843 130.542972 7.84957843 130.542972 10.4767974 123.509772 10.4767974 123.509772 16.4433752 131.11574 16.4433752 133.192421 19.1572057 120.489144 19.1572057 120.489144 0.314368078"></polygon>
                        <polygon points="63.7499727 0.31116024 63.7499727 19.468366 62.726031 19.468366 51.2770824 6.39322019 51.2770824 19.1572057 48.2596541 19.1572057 48.2596541 -9.11722261e-15 49.3123942 -9.11722261e-15 60.7325444 13.0206125 60.7325444 0.314368078 63.7499727 0.314368078"></polygon>
                        <path d="M85.1375558,15.3879966 L87.2750341,13.761623 C88.3565726,15.3334634 89.8668867,16.7609511 92.2027538,16.7609511 C94.1386436,16.7609511 95.450569,15.7601058 95.450569,14.1337321 C95.450569,12.6485034 94.3402321,12.0775083 92.6891261,11.3076273 L90.6092444,10.3356525 C88.3309741,9.28027397 86.222294,7.87844897 86.222294,5.11008518 C86.222294,1.99848278 88.9005416,-9.11722261e-15 92.145157,-9.11722261e-15 C94.9065999,-9.11722261e-15 97.0728766,1.4274877 98.2120118,3.3682294 L96.1033318,4.99460303 C95.133787,3.53824479 93.7674647,2.71062271 92.145157,2.71062271 C90.634843,2.71062271 89.2973191,3.45163318 89.2973191,4.99460303 C89.2973191,6.42209073 90.3788575,6.93534473 91.91797,7.67956304 L94.02665,8.65153781 C96.8744879,9.96354336 98.525594,11.4199016 98.525594,14.01825 C98.525594,17.3576089 95.818548,19.4715738 92.2315521,19.4715738 C89.0989304,19.4715738 86.5646746,17.8740707 85.1407556,15.3879966 L85.1375558,15.3879966 Z"></path>
                        <path d="M101.795808,15.3879966 L103.933286,13.761623 C105.014825,15.3334634 106.525139,16.7609511 108.861006,16.7609511 C110.796896,16.7609511 112.108821,15.7601058 112.108821,14.1337321 C112.108821,12.6485034 110.998484,12.0775083 109.347378,11.3076273 L107.267497,10.3356525 C104.989226,9.28027397 102.880546,7.87844897 102.880546,5.11008518 C102.880546,1.99848278 105.558794,-9.11722261e-15 108.803409,-9.11722261e-15 C111.564852,-9.11722261e-15 113.731129,1.4274877 114.870264,3.3682294 L112.761584,4.99460303 C111.792039,3.53824479 110.425717,2.71062271 108.803409,2.71062271 C107.293095,2.71062271 105.955571,3.45163318 105.955571,4.99460303 C105.955571,6.42209073 107.03711,6.93534473 108.576222,7.67956304 L110.684902,8.65153781 C113.53274,9.96354336 115.183846,11.4199016 115.183846,14.01825 C115.183846,17.3576089 112.4768,19.4715738 108.889804,19.4715738 C105.757183,19.4715738 103.222927,17.8740707 101.799008,15.3879966 L101.795808,15.3879966 Z"></path>
                    </g>
                    <path d="M92.2027538,-2.96059473e-16 C87.6430132,5.49181785 83.1440692,11.0862865 78.4531361,16.5171554 C72.7990578,23.0643518 66.8505963,26.9586666 66.8505963,42.192687 C66.8505963,26.9586666 60.9021347,23.0643518 55.2480564,16.5171554 C50.5603232,11.0894943 46.0613792,5.49502568 41.4984388,-2.96059473e-16 C40.9576695,5.42124542 40.5832909,11.0060906 41.6776286,16.6262219 C42.8775603,22.7692308 46.1413746,27.661183 50.2755394,32.1585712 C52.6466045,34.7408804 54.8256805,37.5060364 57.0111561,40.2519453 L64.0507556,49.7471444 L66.8345972,53.8788391 L66.8473964,53.8980861 L66.8601957,53.8788391 L69.6440373,49.7471444 L76.6836368,40.2519453 C78.8691124,37.5060364 81.0481884,34.7408804 83.4192535,32.1585712 C87.5534183,27.661183 90.8204324,22.7692308 92.0171643,16.6262219 C93.1147019,11.0060906 92.7403232,5.42124542 92.1963541,-2.96059473e-16 L92.2027538,-2.96059473e-16 Z M57.593523,35.658322 C57.3055394,35.340746 57.0207556,35.026378 56.7359718,34.708802 C55.1712608,32.9765698 53.5521529,31.1833886 51.8882476,29.4928582 C45.9877833,23.4974099 43.2615385,16.1225914 43.5943195,7.01554067 L44.1382886,7.82391573 C45.6838006,10.1335587 47.2517114,12.4720723 48.8132226,14.8137937 C49.3795904,15.6638706 49.9587574,16.5107398 50.5347246,17.3576089 C51.9010469,19.3592995 53.3121666,21.4283547 54.5632954,23.5294883 C56.838366,27.3500228 57.8559081,31.4207686 57.5967228,35.658322 L57.593523,35.658322 Z M81.8769413,29.4928582 C80.213036,31.1833886 78.5939281,32.9765698 77.0292171,34.708802 C76.7444333,35.026378 76.4564497,35.340746 76.1716659,35.658322 C75.9124807,31.4207686 76.9300228,27.3500228 79.2050933,23.5294883 C80.4562221,21.4283547 81.8705416,19.3592995 83.2336641,17.3576089 C83.8096313,16.5107398 84.3855985,15.6670785 84.9551661,14.8137937 C86.5166773,12.4720723 88.0845881,10.1335587 89.6301001,7.82391573 L90.1740692,7.01554067 C90.5068503,16.1225914 87.7774056,23.4974099 81.8801411,29.4928582 L81.8769413,29.4928582 Z" id="Shape"></path>
                </g>
            </g>
        </g>
    </g>
</svg>